# xmcd
#
# Track frame offsets:
#	150
#	44770
#	87412
#	127615
#	165202
#	213202
#	251877
#	290647
#
# Disc length: 4245 seconds
#
# Revision: 1
# Processed by: cddbd v1.5.1PL0 Copyright (c) Steve Scherf et al.
# Submitted via: dBpowerAMP V4.0
#
DISCID=6c109308
DTITLE=Jørgen Ryg - Min kone vil skilles
DYEAR=1998
DGENRE=Humour
TTITLE0=Enlig far
TTITLE1=Fru Duerlund
TTITLE2=Hjem fra safari
TTITLE3=Min kone vil skilles
TTITLE4=Skolesøgende pensionist
TTITLE5=Ananaskuren
TTITLE6=Min kone vil giftes
TTITLE7=Kønsrollemønstret
EXTD=
EXTT0=
EXTT1=
EXTT2=
EXTT3=
EXTT4=
EXTT5=
EXTT6=
EXTT7=
PLAYORDER=
